<svg xmlns="http://www.w3.org/2000/svg" height="512pt" version="1.1" viewBox="0 0 512 512" width="512pt">

<path d="M 384.95 0.00 L 480.53 0.00 C 476.63 5.25 476.76 12.40 472.19 17.28 C 472.06 19.08 471.92 20.87 471.79 22.67 C 470.71 24.33 469.61 26.01 468.91 27.87 C 466.79 33.99 464.05 39.88 462.24 46.11 C 457.75 55.47 455.56 65.72 451.05 75.08 C 449.07 78.97 448.16 83.25 447.66 87.55 C 447.10 87.77 445.96 88.19 445.40 88.40 C 444.14 93.84 440.94 98.56 439.77 104.02 C 438.36 110.31 434.90 115.86 432.94 121.96 C 431.00 129.38 427.08 136.05 424.44 143.21 C 423.45 146.45 425.06 150.75 421.67 152.86 C 418.33 159.21 415.70 165.97 414.13 172.98 C 413.37 176.79 411.29 180.12 409.89 183.70 C 407.40 191.01 404.86 198.34 401.32 205.21 C 398.16 213.76 394.73 222.22 391.83 230.85 C 389.66 240.31 385.52 249.11 382.16 258.16 C 382.40 240.45 382.12 222.74 382.29 205.03 C 382.08 203.01 382.58 200.51 380.98 198.95 C 379.48 198.02 377.61 198.05 375.93 197.72 C 369.64 197.74 363.28 197.10 357.04 198.04 C 354.34 198.59 354.66 201.89 354.52 203.98 C 354.55 222.46 354.59 240.95 354.46 259.43 C 350.84 259.45 347.22 259.59 343.63 259.99 C 343.17 259.78 342.26 259.36 341.81 259.15 C 340.13 258.37 338.43 257.61 336.70 256.94 C 334.70 254.34 331.34 254.16 328.37 253.66 C 328.82 253.15 329.27 252.63 329.72 252.12 C 329.12 252.18 327.93 252.31 327.33 252.37 C 325.25 253.82 322.90 254.09 320.60 252.96 C 320.09 249.74 317.59 247.76 315.44 245.60 C 313.56 243.98 315.30 241.66 315.76 239.83 C 322.21 239.78 328.67 239.97 335.12 239.78 C 336.86 239.85 338.27 238.76 339.70 237.95 C 339.71 234.55 339.72 231.15 339.56 227.75 L 339.54 227.30 C 340.16 212.55 339.71 197.78 339.95 183.03 C 339.89 180.27 340.18 177.39 339.29 174.74 C 338.24 172.86 335.75 173.36 333.98 173.16 C 312.31 173.24 290.64 173.23 268.98 173.21 C 262.80 162.54 254.49 153.37 247.86 143.02 C 244.41 138.47 241.25 133.72 237.94 129.08 C 234.29 131.10 230.82 133.42 227.53 135.99 C 217.15 142.32 207.63 149.92 197.25 156.24 C 192.24 159.82 186.98 163.01 181.97 166.59 C 177.87 168.84 174.43 172.02 171.24 175.41 C 163.48 181.09 156.75 188.05 149.67 194.55 C 146.24 197.48 142.80 200.40 139.50 203.49 C 136.34 196.80 133.92 189.77 130.47 183.22 C 131.00 180.49 131.01 177.28 133.29 175.32 C 143.25 165.65 153.33 156.09 163.25 146.36 C 164.79 144.86 166.34 143.34 168.10 142.09 C 170.56 141.19 172.21 139.31 173.04 136.86 C 173.43 136.72 174.22 136.44 174.62 136.30 C 176.24 144.55 177.82 152.99 181.64 160.56 C 181.36 161.40 181.10 162.25 180.86 163.11 C 188.46 160.78 194.33 155.11 200.45 150.32 C 207.47 144.06 215.43 138.10 219.66 129.47 C 211.42 127.11 203.51 123.74 195.55 120.59 C 196.97 118.89 198.39 117.20 199.83 115.53 C 208.95 113.33 216.64 107.58 223.96 101.99 C 230.16 98.68 235.81 94.48 241.94 91.05 C 246.59 88.37 250.66 84.77 255.50 82.40 C 255.75 81.96 256.25 81.07 256.51 80.63 C 259.62 79.60 262.66 78.16 264.87 75.65 C 269.37 72.73 274.15 70.22 279.20 68.40 C 284.03 61.11 293.62 59.57 299.80 53.77 C 305.35 50.84 310.94 47.90 315.86 43.95 C 319.83 40.57 325.20 39.45 328.94 35.75 C 333.11 33.87 336.47 30.65 340.60 28.68 C 345.12 26.38 349.28 23.34 352.83 19.71 C 360.61 16.14 368.13 12.09 375.17 7.21 C 377.89 4.13 381.55 2.19 384.95 0.00 Z" fill="#637f8d" opacity="1.00" stroke="#637f8d" stroke-width="0.25" data-index="1" style="visibility: hidden;"></path>
<path d="M 171.20 118.23 C 173.39 115.93 176.52 113.19 179.91 114.66 C 185.17 116.50 190.25 118.82 195.55 120.59 C 203.51 123.74 211.42 127.11 219.66 129.47 C 215.67 130.27 212.78 133.24 209.61 135.54 C 199.53 142.99 190.31 151.53 181.64 160.56 C 177.82 152.99 176.24 144.55 174.62 136.30 C 174.22 136.44 173.43 136.72 173.04 136.86 C 172.21 139.31 170.56 141.19 168.10 142.09 C 167.74 140.27 167.39 138.46 167.05 136.64 C 169.95 136.48 172.74 135.67 174.55 133.26 C 173.57 129.95 172.34 126.72 170.79 123.64 C 170.51 121.87 169.58 119.63 171.20 118.23 Z" fill="#fa978e" opacity="1.00" stroke="#fa978e" stroke-width="0.25" data-index="2"></path>
<path d="M 170.79 123.64 C 172.34 126.72 173.57 129.95 174.55 133.26 C 172.74 135.67 169.95 136.48 167.05 136.64 C 167.39 138.46 167.74 140.27 168.10 142.09 C 166.34 143.34 164.79 144.86 163.25 146.36 C 153.33 156.09 143.25 165.65 133.29 175.32 C 131.01 177.28 131.00 180.49 130.47 183.22 C 130.09 186.39 131.83 189.19 133.06 191.97 C 139.58 206.95 146.02 221.95 152.48 236.96 C 152.62 236.49 152.90 235.55 153.04 235.08 C 155.71 237.52 158.29 240.23 158.12 244.15 C 156.11 245.11 153.95 245.70 151.82 246.31 C 151.02 245.72 150.24 245.14 149.46 244.54 C 149.36 240.82 149.00 237.04 147.35 233.65 C 143.41 224.86 139.72 215.96 135.92 207.12 C 132.97 200.38 129.40 193.84 127.61 186.67 C 129.22 183.07 130.07 179.19 130.39 175.27 C 129.99 175.01 129.20 174.50 128.81 174.24 C 140.27 163.93 150.79 152.64 162.18 142.26 C 164.51 140.27 165.52 137.33 166.93 134.72 C 168.76 134.21 170.69 134.36 172.57 134.23 C 172.13 130.68 171.56 127.14 170.79 123.64 Z" fill="#ea9a96" opacity="1.00" stroke="#ea9a96" stroke-width="0.25" data-index="3"></path>

<path d="M 209.61 135.54 C 212.78 133.24 215.67 130.27 219.66 129.47 C 215.43 138.10 207.47 144.06 200.45 150.32 C 194.33 155.11 188.46 160.78 180.86 163.11 C 181.10 162.25 181.36 161.40 181.64 160.56 C 190.31 151.53 199.53 142.99 209.61 135.54 Z" fill="#fdfbf8" opacity="1.00" stroke="#fdfbf8" stroke-width="0.25" data-index="5"></path>

<path d="M 239.51 173.71 C 249.27 172.54 259.16 173.49 268.98 173.21 C 290.64 173.23 312.31 173.24 333.98 173.16 C 335.75 173.36 338.24 172.86 339.29 174.74 C 340.18 177.39 339.89 180.27 339.95 183.03 C 339.71 197.78 340.16 212.55 339.54 227.30 C 339.03 223.46 338.64 219.60 338.46 215.73 C 338.23 219.30 338.02 222.89 337.64 226.45 C 336.49 221.03 337.10 215.48 336.98 209.99 C 336.88 198.55 337.33 187.10 336.77 175.67 C 336.33 176.49 335.92 177.32 335.53 178.17 C 304.57 178.29 273.60 178.20 242.64 178.20 C 242.52 193.16 242.41 208.14 242.78 223.09 C 242.11 225.12 240.39 222.79 240.38 221.66 C 240.44 207.77 240.84 193.85 240.27 179.97 C 240.23 178.50 240.09 176.98 240.55 175.56 C 245.69 174.16 251.10 175.18 256.34 174.54 C 250.75 173.90 245.10 174.35 239.51 173.71 Z" fill="#364264" opacity="1.00" stroke="#364264" stroke-width="0.25" data-index="7"></path>
<path d="M 238.38 178.94 C 238.37 177.13 238.86 175.38 239.51 173.71 C 245.10 174.35 250.75 173.90 256.34 174.54 C 251.10 175.18 245.69 174.16 240.55 175.56 C 240.09 176.98 240.23 178.50 240.27 179.97 C 240.72 194.91 240.40 209.87 240.24 224.82 C 243.82 224.62 247.39 224.15 250.99 224.20 C 279.15 224.26 307.31 224.15 335.48 224.24 C 335.33 208.88 335.29 193.52 335.53 178.17 C 335.92 177.32 336.33 176.49 336.77 175.67 C 337.33 187.10 336.88 198.55 336.98 209.99 C 337.10 215.48 336.49 221.03 337.64 226.45 C 338.02 222.89 338.23 219.30 338.46 215.73 C 338.64 219.60 339.03 223.46 339.54 227.30 L 339.56 227.75 C 323.49 227.59 307.41 227.91 291.34 227.58 C 291.73 230.59 292.34 233.57 292.63 236.59 C 291.04 236.45 289.44 236.39 287.88 236.08 C 287.16 234.89 286.99 233.48 287.09 232.12 C 287.85 231.91 289.37 231.50 290.14 231.29 C 290.20 230.02 290.26 228.75 290.32 227.49 C 273.00 228.02 255.65 227.56 238.32 227.73 C 238.26 226.63 238.18 225.54 238.10 224.44 C 238.66 209.28 238.20 194.11 238.38 178.94 Z" fill="#2f3857" opacity="1.00" stroke="#2f3857" stroke-width="0.25" data-index="8"></path>
<path d="M 122.26 176.36 C 124.42 175.59 126.59 174.83 128.81 174.24 C 129.20 174.50 129.99 175.01 130.39 175.27 C 130.07 179.19 129.22 183.07 127.61 186.67 C 126.14 184.77 124.23 183.29 122.69 181.47 C 122.32 179.79 122.37 178.06 122.26 176.36 Z" fill="#f4928c" opacity="1.00" stroke="#f4928c" stroke-width="0.25" data-index="9"></path>

<path d="M 242.64 178.20 C 273.60 178.20 304.57 178.29 335.53 178.17 C 335.29 193.52 335.33 208.88 335.48 224.24 C 307.31 224.15 279.15 224.26 250.99 224.20 C 247.39 224.15 243.82 224.62 240.24 224.82 C 240.40 209.87 240.72 194.91 240.27 179.97 C 240.84 193.85 240.44 207.77 240.38 221.66 C 240.39 222.79 242.11 225.12 242.78 223.09 C 242.41 208.14 242.52 193.16 242.64 178.20 Z" fill="#faf9f2" opacity="1.00" stroke="#faf9f2" stroke-width="0.25" data-index="11" style="opacity: 1;"></path>
<path d="M 133.06 191.97 C 131.83 189.19 130.09 186.39 130.47 183.22 C 133.92 189.77 136.34 196.80 139.50 203.49 C 143.93 214.05 148.62 224.51 153.04 235.08 C 152.90 235.55 152.62 236.49 152.48 236.96 C 146.02 221.95 139.58 206.95 133.06 191.97 Z" fill="#faf9f2" opacity="1.00" stroke="#faf9f2" stroke-width="0.25" data-index="12"></path>
<path d="M 354.52 203.98 C 354.66 201.89 354.34 198.59 357.04 198.04 C 363.28 197.10 369.64 197.74 375.93 197.72 C 377.97 203.62 377.23 209.90 377.29 216.01 C 377.28 228.35 377.33 240.68 377.32 253.02 C 377.36 255.42 376.55 257.72 375.35 259.77 C 375.56 259.92 375.98 260.23 376.19 260.39 L 376.41 260.65 C 365.92 261.10 355.42 260.51 344.92 260.58 C 344.60 260.43 343.95 260.14 343.63 259.99 C 347.22 259.59 350.84 259.45 354.46 259.43 C 354.59 240.95 354.55 222.46 354.52 203.98 Z" fill="#9b9ab3" opacity="1.00" stroke="#9b9ab3" stroke-width="0.25" data-index="13" style="opacity: 1;"></path>
<path d="M 375.93 197.72 C 377.61 198.05 379.48 198.02 380.98 198.95 C 382.58 200.51 382.08 203.01 382.29 205.03 C 382.12 222.74 382.40 240.45 382.16 258.16 C 380.49 259.60 378.39 260.40 376.19 260.39 C 375.98 260.23 375.56 259.92 375.35 259.77 C 376.55 257.72 377.36 255.42 377.32 253.02 C 377.33 240.68 377.28 228.35 377.29 216.01 C 377.23 209.90 377.97 203.62 375.93 197.72 Z" fill="#c9cbd2" opacity="1.00" stroke="#c9cbd2" stroke-width="0.25" data-index="14"></path>
<path d="M 364.97 202.89 C 367.18 201.27 370.00 203.48 369.69 205.98 C 370.43 208.88 366.88 209.15 364.93 209.54 C 364.50 209.05 363.64 208.07 363.21 207.57 C 363.55 205.93 362.79 203.43 364.97 202.89 Z" fill="#d5d4e0" opacity="1.00" stroke="#d5d4e0" stroke-width="0.25" data-index="15"></path>

<path d="M 363.38 213.59 C 368.08 211.74 373.66 214.95 374.26 219.97 C 375.08 225.78 368.23 230.75 363.00 227.95 C 356.98 225.58 357.28 215.68 363.38 213.59 Z" fill="#303c64" opacity="1.00" stroke="#303c64" stroke-width="0.25" data-index="17"></path>
<path d="M 238.32 227.73 C 255.65 227.56 273.00 228.02 290.32 227.49 C 290.26 228.75 290.20 230.02 290.14 231.29 C 289.37 231.50 287.85 231.91 287.09 232.12 C 286.99 233.48 287.16 234.89 287.88 236.08 C 289.44 236.39 291.04 236.45 292.63 236.59 C 292.34 233.57 291.73 230.59 291.34 227.58 C 307.41 227.91 323.49 227.59 339.56 227.75 C 339.72 231.15 339.71 234.55 339.70 237.95 C 338.27 238.76 336.86 239.85 335.12 239.78 C 328.67 239.97 322.21 239.78 315.76 239.83 C 310.48 239.84 305.20 239.86 299.92 239.85 C 293.37 239.79 286.83 239.72 280.30 239.92 C 280.10 239.92 279.70 239.90 279.50 239.90 C 267.32 239.71 255.14 239.97 242.97 239.80 C 241.20 239.96 239.77 238.91 238.48 237.87 C 238.46 237.43 238.42 236.55 238.40 236.12 C 238.35 233.32 238.41 230.53 238.32 227.73 Z" fill="#fbfcfc" opacity="1.00" stroke="#fbfcfc" stroke-width="0.25" data-index="18" style="opacity: 1;"></path>

<path d="M 364.01 238.08 C 365.26 237.70 366.55 237.47 367.84 237.22 C 368.99 238.67 371.11 239.85 370.73 242.01 C 371.05 245.17 366.69 247.73 364.15 245.77 C 361.41 244.25 361.39 239.72 364.01 238.08 Z" fill="#d3d6de" opacity="1.00" stroke="#d3d6de" stroke-width="0.25" data-index="20"></path>
<path d="M 279.50 239.90 C 279.70 239.90 280.10 239.92 280.30 239.92 C 286.66 243.98 293.45 247.99 300.98 249.31 C 301.15 250.88 301.33 252.46 301.51 254.04 C 293.58 254.12 285.65 254.27 277.72 254.25 C 278.40 249.48 279.07 244.70 279.50 239.90 Z" fill="#cccdd3" opacity="1.00" stroke="#cccdd3" stroke-width="0.25" data-index="21" style="opacity: 1;"></path>
<path d="M 280.30 239.92 C 286.83 239.72 293.37 239.79 299.92 239.85 C 300.28 243.00 300.62 246.15 300.98 249.31 C 293.45 247.99 286.66 243.98 280.30 239.92 Z" fill="#babcc4" opacity="1.00" stroke="#babcc4" stroke-width="0.25" data-index="22" style="opacity: 1;"></path>

<path d="M 133.96 247.28 C 140.16 247.41 146.38 247.52 152.55 246.81 C 159.31 247.74 166.13 247.29 172.92 247.34 C 173.10 249.58 173.25 251.83 173.39 254.09 C 160.12 254.24 146.85 254.15 133.58 254.21 C 133.69 251.90 133.82 249.59 133.96 247.28 Z" fill="#f4928c" opacity="1.00" stroke="#f4928c" stroke-width="0.25" data-index="24"></path>
<path d="M 131.49 254.23 C 132.01 254.23 133.05 254.22 133.58 254.21 C 146.85 254.15 160.12 254.24 173.39 254.09 C 174.01 254.10 175.25 254.12 175.87 254.14 C 175.75 256.26 175.63 258.39 175.52 260.52 C 167.01 260.15 158.50 260.48 149.99 260.38 C 143.67 260.22 137.24 261.04 131.02 259.52 C 131.20 257.76 131.35 256.00 131.49 254.23 Z" fill="#23395a" opacity="1.00" stroke="#23395a" stroke-width="0.25" data-index="25"></path>
<path d="M 236.65 257.55 C 238.04 256.35 239.52 255.26 240.99 254.16 C 253.23 254.43 265.47 254.22 277.72 254.25 C 285.65 254.27 293.58 254.12 301.51 254.04 C 304.53 254.19 307.56 254.31 310.59 254.25 C 310.93 255.43 311.28 256.61 311.62 257.79 C 314.56 257.72 317.57 257.55 320.27 256.26 C 320.17 256.78 319.95 257.81 319.84 258.33 C 317.06 258.30 314.28 258.32 311.50 258.32 C 304.98 256.56 298.47 258.92 291.91 258.73 C 277.94 258.75 263.98 258.72 250.01 258.73 C 245.41 258.72 240.79 258.50 236.22 259.08 C 236.33 258.70 236.54 257.93 236.65 257.55 Z" fill="#fcfcfc" opacity="1.00" stroke="#fcfcfc" stroke-width="0.25" data-index="26"></path>
<path d="M 320.27 256.26 C 325.56 254.23 331.43 255.46 336.70 256.94 C 338.43 257.61 340.13 258.37 341.81 259.15 C 334.57 257.79 327.16 258.58 319.84 258.33 C 319.95 257.81 320.17 256.78 320.27 256.26 Z" fill="#d5acb3" opacity="1.00" stroke="#d5acb3" stroke-width="0.25" data-index="27"></path>
<path d="M 291.91 258.73 C 298.47 258.92 304.98 256.56 311.50 258.32 C 305.68 259.26 299.08 259.16 294.47 263.39 C 289.30 267.51 287.45 274.18 286.48 280.44 C 284.01 295.59 281.42 310.72 279.34 325.94 C 278.95 328.43 278.57 330.94 277.90 333.39 C 277.42 332.71 276.46 331.37 275.98 330.69 C 279.66 311.20 281.77 291.42 285.39 271.92 C 286.53 267.59 289.42 264.09 292.81 261.30 C 273.77 260.89 254.72 261.19 235.68 261.13 C 235.82 260.62 236.09 259.59 236.22 259.08 C 240.79 258.50 245.41 258.72 250.01 258.73 C 263.98 258.72 277.94 258.75 291.91 258.73 Z" fill="#98c0d7" opacity="1.00" stroke="#98c0d7" stroke-width="0.25" data-index="28"></path>
<path d="M 311.50 258.32 C 314.28 258.32 317.06 258.30 319.84 258.33 C 327.16 258.58 334.57 257.79 341.81 259.15 C 342.26 259.36 343.17 259.78 343.63 259.99 C 343.95 260.14 344.60 260.43 344.92 260.58 C 346.66 264.09 348.51 267.73 348.41 271.77 C 346.93 289.22 345.27 306.66 343.80 324.11 C 343.47 331.41 338.56 338.06 331.87 340.86 C 325.61 343.49 318.79 344.34 312.11 345.20 L 310.33 345.38 C 298.63 346.94 286.78 346.71 275.02 346.11 C 262.98 346.08 250.93 345.28 239.03 343.39 C 232.00 342.71 224.95 342.22 217.96 341.16 C 218.19 340.59 218.66 339.46 218.90 338.89 C 221.60 338.71 224.31 338.82 226.99 339.23 C 237.30 340.79 247.57 342.60 257.92 343.91 C 262.07 344.43 266.64 344.57 270.33 342.27 C 273.66 340.13 276.15 336.89 277.90 333.39 C 278.57 330.94 278.95 328.43 279.34 325.94 C 281.42 310.72 284.01 295.59 286.48 280.44 C 287.45 274.18 289.30 267.51 294.47 263.39 C 299.08 259.16 305.68 259.26 311.50 258.32 Z" fill="#213858" opacity="1.00" stroke="#213858" stroke-width="0.25" data-index="29" style="opacity: 1;"></path>
<path d="M 131.02 259.52 C 137.24 261.04 143.67 260.22 149.99 260.38 C 158.50 260.48 167.01 260.15 175.52 260.52 C 181.97 261.34 188.48 260.97 194.96 261.06 C 208.53 260.98 222.11 261.38 235.68 261.13 C 254.72 261.19 273.77 260.89 292.81 261.30 C 289.42 264.09 286.53 267.59 285.39 271.92 C 241.32 271.54 197.24 271.86 153.17 271.74 C 150.06 271.72 146.94 271.74 143.83 271.79 C 143.73 272.36 143.53 273.49 143.43 274.06 C 143.35 273.51 143.19 272.42 143.10 271.87 C 130.86 271.68 118.61 271.67 106.36 271.76 C 106.35 269.58 106.33 267.41 106.32 265.23 C 106.32 263.82 106.31 262.42 106.30 261.02 C 114.47 260.21 122.66 261.27 130.84 260.78 C 130.88 260.47 130.97 259.84 131.02 259.52 Z" fill="#614b6c" opacity="1.00" stroke="#614b6c" stroke-width="0.25" data-index="30" style="opacity: 1;"></path>
<path d="M 344.92 260.58 C 355.42 260.51 365.92 261.10 376.41 260.65 C 386.96 261.19 397.52 260.62 408.07 261.03 C 408.26 264.60 408.26 268.18 408.07 271.75 C 395.92 271.76 383.76 271.68 371.61 271.74 C 368.43 271.73 365.26 271.71 362.09 271.71 C 357.53 271.68 352.97 271.70 348.41 271.77 C 348.51 267.73 346.66 264.09 344.92 260.58 Z" fill="#614b6c" opacity="1.00" stroke="#614b6c" stroke-width="0.25" data-index="31"></path>
<path d="M 143.83 271.79 C 146.94 271.74 150.06 271.72 153.17 271.74 C 151.80 282.45 149.71 293.04 147.87 303.68 C 146.21 310.02 144.92 316.46 143.95 322.95 C 137.12 361.41 130.21 399.86 123.04 438.26 L 122.74 439.47 C 122.19 441.81 121.73 444.18 121.28 446.56 C 118.90 446.63 116.52 446.67 114.14 446.72 C 114.26 445.59 114.39 444.47 114.51 443.36 C 114.79 441.68 115.12 440.01 115.43 438.34 C 117.46 425.90 120.19 413.54 121.09 400.95 C 123.47 397.06 123.22 392.33 124.09 388.00 C 130.50 350.01 136.91 312.03 143.43 274.06 C 143.53 273.49 143.73 272.36 143.83 271.79 Z" fill="#233a5b" opacity="1.00" stroke="#233a5b" stroke-width="0.25" data-index="32" style="opacity: 1;"></path>

<path d="M 348.41 271.77 C 352.97 271.70 357.53 271.68 362.09 271.71 C 364.38 287.69 368.01 303.46 369.95 319.50 C 370.09 323.01 370.29 326.53 370.90 330.00 C 374.34 351.31 376.78 372.76 380.26 394.06 C 382.29 407.56 384.32 421.05 386.35 434.55 C 387.85 434.96 389.37 435.38 390.86 435.87 C 391.00 436.56 391.29 437.94 391.44 438.63 C 379.91 438.55 368.45 437.02 356.94 436.57 C 349.10 436.39 341.31 435.45 333.46 435.40 C 333.33 434.77 333.07 433.51 332.94 432.89 C 327.69 408.41 321.95 384.03 316.55 359.58 C 315.37 354.72 315.05 349.43 312.11 345.20 C 318.79 344.34 325.61 343.49 331.87 340.86 C 338.56 338.06 343.47 331.41 343.80 324.11 C 345.27 306.66 346.93 289.22 348.41 271.77 Z" fill="#5e7b8d" opacity="1.00" stroke="#5e7b8d" stroke-width="0.25" data-index="34" style="opacity: 1; visibility: hidden;"></path>
<path d="M 362.09 271.71 C 365.26 271.71 368.43 271.73 371.61 271.74 C 373.26 285.22 376.09 298.52 378.00 311.97 C 385.24 355.70 392.47 399.45 399.84 443.16 C 400.04 444.32 400.26 445.47 400.49 446.64 C 397.94 446.66 395.39 446.67 392.85 446.67 C 392.46 443.97 392.00 441.29 391.44 438.63 C 391.29 437.94 391.00 436.56 390.86 435.87 C 387.81 418.20 384.77 400.52 381.36 382.92 C 379.17 374.76 378.93 366.27 377.12 358.03 C 374.62 345.21 372.99 332.21 369.95 319.50 C 368.01 303.46 364.38 287.69 362.09 271.71 Z" fill="#233a5b" opacity="1.00" stroke="#233a5b" stroke-width="0.25" data-index="35" style="opacity: 1;"></path>
<path d="M 143.95 322.95 C 144.92 316.46 146.21 310.02 147.87 303.68 C 147.23 318.59 143.40 333.14 141.94 347.97 C 137.60 375.63 133.83 403.37 129.26 430.99 C 128.96 432.34 128.68 433.75 127.96 434.96 C 126.61 435.55 125.17 435.87 123.76 436.28 C 123.58 436.77 123.22 437.76 123.04 438.26 C 130.21 399.86 137.12 361.41 143.95 322.95 Z" fill="#594f72" opacity="1.00" stroke="#594f72" stroke-width="0.25" data-index="36" style="opacity: 1;"></path>
<path d="M 369.95 319.50 C 372.99 332.21 374.62 345.21 377.12 358.03 C 378.93 366.27 379.17 374.76 381.36 382.92 C 384.77 400.52 387.81 418.20 390.86 435.87 C 389.37 435.38 387.85 434.96 386.35 434.55 C 384.32 421.05 382.29 407.56 380.26 394.06 C 376.78 372.76 374.34 351.31 370.90 330.00 C 370.29 326.53 370.09 323.01 369.95 319.50 Z" fill="#585172" opacity="1.00" stroke="#585172" stroke-width="0.25" data-index="37" style="opacity: 1;"></path>
<path d="M 275.98 330.69 C 276.46 331.37 277.42 332.71 277.90 333.39 C 276.15 336.89 273.66 340.13 270.33 342.27 C 266.64 344.57 262.07 344.43 257.92 343.91 C 247.57 342.60 237.30 340.79 226.99 339.23 C 224.31 338.82 221.60 338.71 218.90 338.89 C 218.16 338.93 216.67 339.00 215.93 339.04 C 217.51 337.99 219.17 336.93 221.11 336.75 C 229.69 335.38 238.40 335.29 247.06 334.72 C 256.32 334.60 265.53 333.39 274.80 333.55 C 275.20 332.60 275.60 331.64 275.98 330.69 Z" fill="#88bddc" opacity="1.00" stroke="#88bddc" stroke-width="0.25" data-index="38" style="opacity: 1;"></path>
<path d="M 233.88 349.91 C 234.53 347.57 235.45 343.53 238.72 344.27 C 234.67 349.71 234.56 356.67 232.93 363.00 C 228.01 386.87 222.38 410.59 217.78 434.52 C 217.31 434.53 216.37 434.55 215.90 434.56 C 216.98 426.97 219.13 419.60 220.57 412.08 C 225.19 391.40 229.66 370.68 233.88 349.91 Z" fill="#d3d6de" opacity="1.00" stroke="#d3d6de" stroke-width="0.25" data-index="39" style="opacity: 1;"></path>
<path d="M 310.33 345.38 L 312.11 345.20 C 315.05 349.43 315.37 354.72 316.55 359.58 C 321.95 384.03 327.69 408.41 332.94 432.89 C 332.99 433.45 333.09 434.57 333.15 435.13 C 332.72 434.93 331.87 434.52 331.45 434.32 C 325.69 407.53 319.45 380.83 313.58 354.06 C 312.95 351.01 311.67 348.16 310.33 345.38 Z" fill="#d3d6de" opacity="1.00" stroke="#d3d6de" stroke-width="0.25" data-index="40"></path>
<path d="M 273.45 347.01 C 274.45 347.01 275.46 347.01 276.47 347.01 C 275.96 348.96 275.69 350.98 275.88 352.99 C 276.95 369.34 277.87 385.69 278.78 402.05 L 277.75 401.72 L 277.71 402.11 L 276.84 401.43 C 276.47 390.31 275.64 379.22 275.11 368.12 C 274.37 361.09 274.72 353.98 273.45 347.01 Z" fill="#cddae2" opacity="1.00" stroke="#cddae2" stroke-width="0.25" data-index="41"></path>
<path d="M 65.66 357.20 C 68.42 354.24 71.53 350.53 76.02 350.92 C 88.68 350.79 101.34 351.00 114.00 350.84 C 117.29 350.78 120.69 350.94 123.69 352.44 C 123.39 355.00 123.07 357.56 122.71 360.12 C 122.47 359.50 121.99 358.27 121.74 357.65 C 103.26 358.94 84.68 357.42 66.17 358.27 C 66.04 358.00 65.79 357.46 65.66 357.20 Z" fill="#d5d8df" opacity="1.00" stroke="#d5d8df" stroke-width="0.25" data-index="42" style="opacity: 1;"></path>
<path d="M 123.69 352.44 C 124.04 356.84 124.30 361.38 122.96 365.66 C 121.67 370.01 120.26 374.43 120.48 379.04 C 120.68 386.34 120.03 393.69 121.09 400.95 C 120.19 413.54 117.46 425.90 115.43 438.34 C 101.97 438.37 88.51 438.24 75.06 438.40 C 71.79 438.78 68.23 436.66 68.52 433.05 C 68.35 414.37 68.50 395.68 68.48 377.00 C 68.65 370.22 63.92 364.04 65.66 357.20 C 65.79 357.46 66.04 358.00 66.17 358.27 C 84.68 357.42 103.26 358.94 121.74 357.65 C 121.99 358.27 122.47 359.50 122.71 360.12 C 123.07 357.56 123.39 355.00 123.69 352.44 Z" fill="#c3c6cb" opacity="1.00" stroke="#c3c6cb" stroke-width="0.25" data-index="43" style="opacity: 1;"></path>
<path d="M 82.21 366.03 C 90.20 365.34 98.29 366.06 106.32 365.72 C 106.40 369.05 106.45 372.40 105.87 375.71 C 98.03 375.84 90.19 375.86 82.35 375.69 C 81.95 372.51 81.33 369.18 82.21 366.03 Z" fill="#313d63" opacity="1.00" stroke="#313d63" stroke-width="0.25" data-index="44" style="opacity: 1;"></path>
<path d="M 278.07 404.23 C 278.28 404.24 278.71 404.26 278.93 404.27 C 279.42 414.09 280.55 423.91 280.41 433.76 L 279.14 433.78 C 278.26 424.88 278.07 415.93 277.32 407.01 C 277.50 406.32 277.88 404.92 278.07 404.23 Z" fill="#ced2db" opacity="1.00" stroke="#ced2db" stroke-width="0.25" data-index="45"></path>

<path d="M 213.75 439.44 C 214.79 439.40 215.84 439.36 216.89 439.34 C 216.77 441.83 216.38 444.31 215.71 446.72 C 214.66 446.61 213.61 446.51 212.56 446.41 C 213.00 444.09 213.42 441.77 213.75 439.44 Z" fill="#2b3545" opacity="1.00" stroke="#2b3545" stroke-width="0.25" data-index="47"></path>
<path d="M 332.32 439.45 C 333.38 439.38 334.45 439.32 335.53 439.27 C 336.07 441.66 336.52 444.09 336.74 446.54 C 335.71 446.53 334.69 446.51 333.67 446.50 C 333.23 444.15 332.72 441.81 332.32 439.45 Z" fill="#2b3246" opacity="1.00" stroke="#2b3246" stroke-width="0.25" data-index="48"></path>
<path d="M 279.17 443.29 C 280.22 443.35 281.28 443.41 282.34 443.48 C 282.34 446.08 282.39 448.68 282.41 451.28 C 281.40 451.32 280.40 451.37 279.41 451.43 C 279.23 448.72 279.15 446.00 279.17 443.29 Z" fill="#3e444c" opacity="1.00" stroke="#3e444c" stroke-width="0.25" data-index="49"></path>
</svg>